<svg width="72" height="108" viewBox="0 0 72 108" fill="none" xmlns="http://www.w3.org/2000/svg">
<g clip-path="url(#clip0_75_846)">
<path d="M18.0036 108C27.9376 108 36 99.936 36 90V72H18.0036C8.06959 72 0.00720215 80.064 0.00720215 90C0.00720215 99.936 8.06959 108 18.0036 108Z" fill="#0ACF83"/>
<path d="M0.00720215 54C0.00720215 44.064 8.06959 36 18.0036 36H36V72H18.0036C8.06959 72 0.00720215 63.936 0.00720215 54Z" fill="#A259FF"/>
<path d="M0.00720215 18C0.00720215 8.064 8.06959 0 18.0036 0H36V36H18.0036C8.06959 36 0.00720215 27.936 0.00720215 18Z" fill="#F24E1E"/>
<path d="M36 0H53.9964C63.9304 0 71.9928 8.064 71.9928 18C71.9928 27.936 63.9304 36 53.9964 36H36V0Z" fill="#FF7262"/>
<path d="M71.9928 54C71.9928 63.936 63.9304 72 53.9964 72C44.0624 72 36 63.936 36 54C36 44.064 44.0624 36 53.9964 36C63.9304 36 71.9928 44.064 71.9928 54Z" fill="#1ABCFE"/>
</g>
<defs>
<clipPath id="clip0_75_846">
<rect width="72" height="108" fill="white"/>
</clipPath>
</defs>
</svg>
