<svg width="77" height="108" viewBox="0 0 77 108" fill="none" xmlns="http://www.w3.org/2000/svg">
<path d="M25.4577 80.3526C25.4577 80.3526 21.704 82.6614 28.1292 83.4426C35.9131 84.3818 39.8914 84.2471 48.4694 82.53C48.4694 82.53 50.7246 84.0256 53.8742 85.3209C34.6447 94.0372 10.354 84.8161 25.4577 80.3526ZM23.108 68.9785C23.108 68.9785 18.8978 72.2746 25.3277 72.9779C33.6428 73.8852 40.2094 73.9594 51.5721 71.6454C51.5721 71.6454 53.144 73.3305 55.6153 74.252C32.3653 81.4422 6.46939 74.819 23.108 68.9785Z" fill="#5382A1"/>
<path d="M42.9172 49.6842C47.6553 55.4536 41.6725 60.6456 41.6725 60.6456C41.6725 60.6456 53.703 54.0771 48.178 45.8517C43.0175 38.1807 39.0601 34.3697 60.4837 21.229C60.484 21.2287 26.8557 30.1113 42.9172 49.6842Z" fill="#E76F00"/>
<path d="M68.3498 88.7657C68.3498 88.7657 71.1277 91.1866 65.2905 93.0591C54.1909 96.6153 19.093 97.6891 9.34291 93.2011C5.83802 91.5882 12.4107 89.3503 14.4782 88.8807C16.6344 88.3862 17.8666 88.4784 17.8666 88.4784C13.9688 85.5743 -7.32719 94.1803 7.04929 96.6452C46.2561 103.37 78.5198 93.6172 68.3498 88.7657ZM27.263 57.1936C27.263 57.1936 9.4099 61.6783 20.9407 63.3069C25.8094 63.9963 35.515 63.8403 44.5552 63.0392C51.9436 62.38 59.3628 60.9788 59.3628 60.9788C59.3628 60.9788 56.7575 62.1588 54.8727 63.5197C36.7432 68.5627 1.72046 66.2165 11.8031 61.0584C20.3299 56.6991 27.263 57.1936 27.263 57.1936ZM59.2892 76.1264C77.7186 65.9981 69.1978 56.2645 63.25 57.5761C61.7922 57.897 61.1422 58.1751 61.1422 58.1751C61.1422 58.1751 61.6837 57.2785 62.7167 56.8904C74.483 52.5154 83.5319 69.7936 58.9185 76.6372C58.9185 76.6372 59.2042 76.3678 59.2892 76.1264Z" fill="#5382A1"/>
<path d="M48.1779 0.00976562C48.1779 0.00976562 58.3844 10.8076 38.4974 27.4124C22.5501 40.7318 34.8609 48.3263 38.4908 57.0036C29.1824 48.1208 22.351 40.3017 26.934 33.0241C33.6605 22.3414 52.2959 17.162 48.1779 0.00976562Z" fill="#E76F00"/>
<path d="M29.0739 103.572C46.7639 104.77 73.9288 102.908 74.5719 94.0552C74.5719 94.0552 73.3355 97.4108 59.9521 100.076C44.8536 103.081 26.2312 102.731 15.1862 100.805C15.1867 100.804 17.4475 102.783 29.0739 103.572Z" fill="#5382A1"/>
</svg>
