<svg width="100" height="100" viewBox="0 0 100 100" fill="none" xmlns="http://www.w3.org/2000/svg">
<g clip-path="url(#clip0_75_1014)">
<path d="M0 0H100V100H0V0Z" fill="#F0DB4F"/>
<path d="M91.8156 76.1502C91.0837 71.5875 88.1084 67.7567 79.2966 64.1825C76.2358 62.7757 72.8232 61.7682 71.8061 59.4487C71.4449 58.0989 71.3974 57.3384 71.6255 56.5209C72.2814 53.8688 75.4468 53.0418 77.9563 53.8023C79.5723 54.3441 81.1027 55.5895 82.0248 57.5761C86.3404 54.7815 86.3309 54.8004 89.3442 52.8803C88.2415 51.1693 87.6521 50.3802 86.9297 49.6484C84.3347 46.7492 80.7985 45.2568 75.1426 45.3708C74.1635 45.4944 73.1751 45.6274 72.1959 45.7511C69.3728 46.464 66.6826 47.9469 65.1046 49.9336C60.3708 55.3043 61.7206 64.7053 67.481 68.5743C73.1559 72.8328 81.4924 73.8024 82.5571 77.7853C83.5932 82.6617 78.9735 84.2396 74.3822 83.6788C70.9982 82.9754 69.1161 81.2549 67.0818 78.1275C63.3367 80.2948 63.3367 80.2948 59.4868 82.5096C60.3994 84.5058 61.3594 85.4089 62.8899 87.1389C70.1332 94.4868 88.2605 94.1256 91.5116 83.0039C91.6445 82.6236 92.5192 80.0761 91.8156 76.1502ZM54.3632 45.9601H45.0096C45.0096 54.0399 44.9716 62.0628 44.9716 70.1426C44.9716 75.2852 45.2378 80 44.4013 81.4449C43.0325 84.287 39.4868 83.9354 37.8709 83.3839C36.2264 82.576 35.3899 81.4258 34.4203 79.8004C34.1541 79.3346 33.9545 78.9734 33.8879 78.9449C31.35 80.4943 28.8213 82.0531 26.2833 83.6027C27.5477 86.1977 29.4107 88.4506 31.7966 89.9144C35.3613 92.0531 40.1521 92.709 45.1617 91.5588C48.4222 90.6083 51.2358 88.6407 52.7092 85.6464C54.8385 81.7205 54.3822 76.9677 54.3632 71.711C54.4107 63.1369 54.3632 54.5628 54.3632 45.9601Z" fill="#323330"/>
</g>
<defs>
<clipPath id="clip0_75_1014">
<rect width="100" height="100" fill="white"/>
</clipPath>
</defs>
</svg>
