<svg width="98" height="108" viewBox="0 0 98 108" fill="none" xmlns="http://www.w3.org/2000/svg">
<g clip-path="url(#clip0_75_980)">
<path d="M44.5894 1.37109C47.254 -0.155079 50.7246 -0.161973 53.3868 1.37109C66.7804 8.94411 80.1782 16.5053 93.5695 24.0829C96.0883 25.5026 97.773 28.3075 97.7474 31.2116V76.7739C97.7662 79.7982 95.9149 82.6702 93.2576 84.0577C79.908 91.589 66.5653 99.1295 53.2181 106.661C50.4984 108.217 46.9581 108.097 44.3234 106.413C40.3212 104.092 36.3122 101.782 32.3096 99.4623C31.4917 98.9744 30.5697 98.586 29.9922 97.7925C30.5027 97.1039 31.4155 97.0181 32.1573 96.7175C33.8279 96.1859 35.3622 95.3326 36.897 94.5046C37.285 94.2388 37.7589 94.3407 38.1309 94.5785C41.5532 96.5421 44.9454 98.5627 48.3792 100.507C49.1118 100.931 49.8535 100.369 50.4796 100.02C63.5797 92.6108 76.6958 85.23 89.7935 77.819C90.2788 77.5854 90.5471 77.0699 90.5077 76.5379C90.5169 61.5079 90.51 46.4753 90.5123 31.4453C90.5678 30.8417 90.2187 30.2868 89.6734 30.0397C76.3701 22.5429 63.0737 15.0346 49.7727 7.5359C49.5423 7.37737 49.2693 7.2923 48.9896 7.29189C48.71 7.29148 48.4367 7.37574 48.2058 7.5336C34.9049 15.0346 21.6108 22.5498 8.3098 30.0462C7.76633 30.2936 7.40159 30.8394 7.46627 31.4453C7.46857 46.4753 7.46627 61.5079 7.46627 76.5402C7.4432 76.7998 7.50017 77.0602 7.62951 77.2864C7.75884 77.5125 7.95432 77.6936 8.18963 77.8052C11.7391 79.8193 15.2931 81.8192 18.8448 83.8264C20.8457 84.9041 23.3024 85.5445 25.507 84.7188C27.4524 84.0206 28.816 82.0341 28.7789 79.9671C28.7973 65.0248 28.7697 50.0802 28.7927 35.1402C28.7441 34.4769 29.3729 33.9289 30.0174 33.9913C31.7229 33.9798 33.4306 33.9683 35.136 33.9959C35.8479 33.9798 36.3378 34.6941 36.2498 35.3624C36.2429 50.3993 36.2681 65.4365 36.2383 80.4734C36.2429 84.4809 34.5975 88.8415 30.8931 90.8024C26.3294 93.168 20.6888 92.6663 16.1802 90.3979C12.2772 88.4486 8.55245 86.148 4.71866 84.0596C2.05448 82.6798 0.212411 79.7963 0.231164 76.7742V31.2116C0.203225 28.2474 1.95498 25.3915 4.55217 23.9925C17.8995 16.4551 31.2444 8.91194 44.5894 1.37109Z" fill="#8CC84B"/>
<path d="M56.2335 32.9324C62.0549 32.5575 68.2868 32.7103 73.5252 35.58C77.581 37.779 79.8295 42.3943 79.9011 46.9031C79.7878 47.5113 79.1525 47.8468 78.5723 47.805C76.8833 47.8027 75.1939 47.828 73.505 47.7936C72.7885 47.8211 72.3721 47.1601 72.2821 46.5263C71.7968 44.369 70.6211 42.2323 68.5919 41.1918C65.4768 39.6311 61.865 39.7096 58.4683 39.7422C55.9886 39.8739 53.3221 40.0888 51.2213 41.5479C49.6085 42.6532 49.1186 44.8844 49.6942 46.6814C50.237 47.9716 51.7254 48.3879 52.9432 48.7717C59.9586 50.6077 67.3928 50.425 74.2742 52.8412C77.1233 53.8262 79.9103 55.7411 80.8855 58.7261C82.1611 62.7267 81.602 67.5085 78.7575 70.7202C76.4508 73.3631 73.0912 74.8016 69.7404 75.5829C65.2828 76.5775 60.6567 76.6027 56.1298 76.1612C51.8731 75.6756 47.4434 74.5565 44.1573 71.6543C41.3473 69.2128 39.9749 65.4087 40.1111 61.737C40.1436 61.117 40.7606 60.6846 41.3542 60.7356C43.0551 60.7218 44.7559 60.7172 46.4567 60.7379C47.1361 60.6892 47.6398 61.2767 47.6746 61.9174C47.9884 63.9729 48.7604 66.1302 50.5516 67.3488C54.0084 69.5804 58.3458 69.4276 62.304 69.4901C65.5832 69.3445 69.2643 69.3005 71.9404 67.1317C73.3522 65.8947 73.7706 63.825 73.389 62.0446C72.9756 60.5414 71.4042 59.8409 70.0547 59.3829C63.1292 57.1907 55.612 57.9861 48.7535 55.5071C45.9692 54.5225 43.2767 52.6608 42.2069 49.7985C40.7143 45.7473 41.3982 40.7364 44.5408 37.6331C47.6049 34.5463 52.0281 33.3579 56.2335 32.9324Z" fill="#8CC84B"/>
</g>
<defs>
<clipPath id="clip0_75_980">
<rect width="98" height="108" fill="white"/>
</clipPath>
</defs>
</svg>
