<svg width="127" height="66" viewBox="0 0 127 66" fill="none" xmlns="http://www.w3.org/2000/svg">
<g clip-path="url(#clip0_75_962)">
<path d="M63.5 65.6152C98.5701 65.6152 127 50.9267 127 32.8076C127 14.6885 98.5701 0 63.5 0C28.4299 0 0 14.6885 0 32.8076C0 50.9267 28.4299 65.6152 63.5 65.6152Z" fill="#8993BE"/>
<path fill-rule="evenodd" clip-rule="evenodd" d="M17.8321 52.2331L24.7913 17.2669H40.8831C47.8418 17.6988 51.3214 21.1519 51.3214 27.1959C51.3214 37.5561 43.058 43.5997 35.6637 43.1678H27.8358L26.096 52.2331H17.8321ZM29.5751 36.693L31.75 23.7423H37.404C40.4485 23.7423 42.6229 25.0373 42.6229 27.6272C42.1883 34.9662 38.7087 36.2612 34.7945 36.693H29.5751ZM49.7046 43.1678L56.6633 8.20215H64.9273L63.1875 17.2669H71.0158C77.975 17.6988 80.5845 21.1519 79.7148 25.4691L76.6703 43.1678H67.9718L71.0163 27.1959C71.4509 25.0373 71.4509 23.7423 68.4069 23.7423H61.8827L57.9686 43.1678H49.7046ZM76.1132 52.2331L83.0719 17.2669H99.1642C106.123 17.6988 109.603 21.1519 109.603 27.1959C109.603 37.5561 101.339 43.5997 93.9453 43.1678H86.1164L84.3766 52.2331H76.1132ZM87.8557 36.693L90.0306 23.7423H95.6851C98.7296 23.7423 100.904 25.0373 100.904 27.6272C100.469 34.9662 96.9898 36.2612 93.0756 36.693H87.8562H87.8557Z" fill="#232531"/>
</g>
<defs>
<clipPath id="clip0_75_962">
<rect width="127" height="66" fill="white"/>
</clipPath>
</defs>
</svg>
